<svg xmlns="http://www.w3.org/2000/svg" width="83.315" height="96.691" viewBox="0 0 83.315 96.691">
  <g id="noun_rank_3548857" transform="translate(0)">
    <path id="Path_3174" data-name="Path 3174" d="M108.315,49.326A5,5,0,0,0,106,45.11L69.34,21.782a5,5,0,0,0-5.365,0L27.316,45.11A5,5,0,0,0,25,49.326v63.319a5,5,0,0,0,7.682,4.216L66.657,95.249l33.976,21.662a5,5,0,0,0,7.682-4.266ZM66.657,31.93l31.66,20.146v19.8L69.34,53.442a5,5,0,0,0-5.365,0L35,71.871v-19.8ZM69.34,85.1a5,5,0,0,0-5.365,0L35,103.531v-19.8L66.657,63.59l31.66,20.146v19.8Z" transform="translate(-25 -21.001)" fill="#75b650"/>
  </g>
</svg>
