<svg xmlns="http://www.w3.org/2000/svg" width="114.64" height="93.088" viewBox="0 0 114.64 93.088">
  <g id="noun_chat_3660595" transform="translate(-12.5 -17.5)">
    <path id="Path_3163" data-name="Path 3163" d="M14.959,52.552H26.028l9.26,7.408a1.96,1.96,0,0,0,3.184-1.53V52.552H40.43a1.96,1.96,0,0,0,1.959-1.959V32.959A1.96,1.96,0,0,0,40.43,31H14.959A1.96,1.96,0,0,0,13,32.959V50.593A1.96,1.96,0,0,0,14.959,52.552Zm1.959-17.634H38.471V48.634H36.512a1.96,1.96,0,0,0-1.959,1.959v3.76l-6.613-5.29a1.962,1.962,0,0,0-1.225-.429h-9.8Z" transform="translate(0 12.471)" fill="#382933" stroke="#382933" stroke-width="1"/>
    <path id="Path_3164" data-name="Path 3164" d="M38.8,60.593A9.8,9.8,0,1,0,29,50.8,9.808,9.808,0,0,0,38.8,60.593Zm0-15.675A5.878,5.878,0,1,1,32.919,50.8,5.885,5.885,0,0,1,38.8,44.919Z" transform="translate(15.349 22.064)" fill="#382933" stroke="#382933" stroke-width="1"/>
    <path id="Path_3165" data-name="Path 3165" d="M27,74.552a1.96,1.96,0,0,0,1.959,1.959H52.471a1.96,1.96,0,0,0,1.959-1.959V66.715a13.715,13.715,0,1,0-27.43,0Zm3.919-7.837a9.8,9.8,0,1,1,19.593,0v5.878H30.919Z" transform="translate(13.43 33.576)" fill="#382933" stroke="#382933" stroke-width="1"/>
    <path id="Path_3166" data-name="Path 3166" d="M83.43,18H57.959A1.96,1.96,0,0,0,56,19.959V37.593a1.96,1.96,0,0,0,1.959,1.959h1.959V45.43a1.96,1.96,0,0,0,3.184,1.53l9.26-7.408H83.43a1.96,1.96,0,0,0,1.959-1.959V19.959A1.96,1.96,0,0,0,83.43,18ZM81.471,35.634h-9.8a1.962,1.962,0,0,0-1.225.429l-6.613,5.29v-3.76a1.96,1.96,0,0,0-1.959-1.959H59.919V21.919H81.471Z" transform="translate(41.251)" fill="#382933" stroke="#382933" stroke-width="1"/>
    <path id="Path_3167" data-name="Path 3167" d="M54.8,47.593A9.8,9.8,0,1,0,45,37.8,9.808,9.808,0,0,0,54.8,47.593Zm0-15.675A5.878,5.878,0,1,1,48.919,37.8,5.885,5.885,0,0,1,54.8,31.919Z" transform="translate(30.698 9.593)" fill="#382933" stroke="#382933" stroke-width="1"/>
    <path id="Path_3168" data-name="Path 3168" d="M43,61.552a1.96,1.96,0,0,0,1.959,1.959H68.471a1.96,1.96,0,0,0,1.959-1.959V53.715a13.715,13.715,0,1,0-27.43,0Zm3.919-7.837a9.8,9.8,0,1,1,19.593,0v5.878H46.919Z" transform="translate(28.78 21.105)" fill="#382933" stroke="#382933" stroke-width="1"/>
  </g>
</svg>