<svg xmlns="http://www.w3.org/2000/svg" width="94.023" height="96" viewBox="0 0 94.023 96">
  <g id="accepted_company_address" transform="translate(0)">
    <path id="Path_3007" data-name="Path 3007" d="M47.175,8H23v5.965H47.175V76.6H23v5.965H53.218v-68.6A6,6,0,0,0,47.175,8Z" transform="translate(40.805 13.437)" fill="#382933"/>
    <path id="Path_3008" data-name="Path 3008" d="M51.987,3H10.406A6.6,6.6,0,0,0,4,9.784V99H58.393V9.784A6.6,6.6,0,0,0,51.987,3Zm.363,89.6H43.284V83H19.109v9.6H10.044V9.784a.374.374,0,0,1,.363-.384h41.58a.374.374,0,0,1,.363.384Z" transform="translate(-4 -3)" fill="#382933"/>
    <path id="Path_3009" data-name="Path 3009" d="M8,8h6.044v5.965H8Z" transform="translate(4.087 8.078)" fill="#382933"/>
    <path id="Path_3010" data-name="Path 3010" d="M12,8h6.044v5.965H12Z" transform="translate(14.068 8.078)" fill="#382933"/>
    <path id="Path_3011" data-name="Path 3011" d="M16,8h6.044v5.965H16Z" transform="translate(23.102 8.078)" fill="#382933"/>
    <path id="Path_3012" data-name="Path 3012" d="M8,13h6.044v5.965H8Z" transform="translate(4.087 19.155)" fill="#382933"/>
    <path id="Path_3013" data-name="Path 3013" d="M12,13h6.044v5.965H12Z" transform="translate(14.068 19.155)" fill="#382933"/>
    <path id="Path_3014" data-name="Path 3014" d="M16,13h6.044v5.965H16Z" transform="translate(23.102 19.155)" fill="#382933"/>
    <path id="Path_3015" data-name="Path 3015" d="M8,18h6.044v5.965H8Z" transform="translate(4.087 30.233)" fill="#382933"/>
    <path id="Path_3016" data-name="Path 3016" d="M12,18h6.044v5.965H12Z" transform="translate(14.068 30.233)" fill="#382933"/>
    <path id="Path_3017" data-name="Path 3017" d="M16,18h6.044v5.965H16Z" transform="translate(23.102 30.233)" fill="#382933"/>
    <path id="Path_3018" data-name="Path 3018" d="M8,23h6.044v5.965H8Z" transform="translate(4.087 41.311)" fill="#382933"/>
    <path id="Path_3019" data-name="Path 3019" d="M12,23h6.044v5.965H12Z" transform="translate(14.068 41.311)" fill="#382933"/>
    <path id="Path_3020" data-name="Path 3020" d="M16,23h6.044v5.965H16Z" transform="translate(23.102 41.311)" fill="#382933"/>
    <path id="Path_3021" data-name="Path 3021" d="M23,13h6.044v5.965H23Z" transform="translate(38.912 19.155)" fill="#382933"/>
    <path id="Path_3022" data-name="Path 3022" d="M27,13h6.044v5.965H27Z" transform="translate(48.892 19.155)" fill="#382933"/>
    <path id="Path_3023" data-name="Path 3023" d="M23,18h6.044v5.965H23Z" transform="translate(38.912 30.233)" fill="#382933"/>
    <path id="Path_3024" data-name="Path 3024" d="M27,18h6.044v5.965H27Z" transform="translate(48.892 30.233)" fill="#382933"/>
    <path id="Path_3025" data-name="Path 3025" d="M23,23h6.044v5.965H23Z" transform="translate(38.912 41.311)" fill="#382933"/>
    <path id="Path_3026" data-name="Path 3026" d="M27,23h6.044v5.965H27Z" transform="translate(48.892 41.311)" fill="#382933"/>
  </g>
</svg>
