<svg xmlns="http://www.w3.org/2000/svg" width="99.315" height="96" viewBox="0 0 99.315 96">
  <g id="chart-pie" transform="translate(-1.121 -2.242)">
    <path id="Path_3156" data-name="Path 3156" d="M20.634,79.42a40.2,40.2,0,0,1-3.541-54.429C30.275,8.574,54.046,4.173,72.587,14.717l5.075-4.9C56.276-3.395,28.01,1.064,12.1,20.162a46.769,46.769,0,0,0,3.6,64.024,51.116,51.116,0,0,0,61.868,6.56l-5.087-4.91A43.985,43.985,0,0,1,20.634,79.42Z" transform="translate(0 0)" fill="#382933"/>
    <path id="Path_3157" data-name="Path 3157" d="M62.257,65.139a59.694,59.694,0,0,0,0-40.265q-.25-.691-.518-1.373A53.124,53.124,0,0,0,52.3,7.8L50.169,5.362,48.034,7.807l-32.48,37.2L48.1,82.289l2.065,2.365L52.3,82.209A53.064,53.064,0,0,0,61.621,66.8q.329-.823.633-1.659ZM50.086,15.227c12.848,17.125,12.848,42.431,0,59.556l-26-29.776Z" transform="translate(34.681 5.245)" fill="#382933"/>
  </g>
</svg>
