<svg xmlns="http://www.w3.org/2000/svg" width="73.194" height="86.428" viewBox="0 0 73.194 86.428">
  <g id="noun_training_plan_2321417" data-name="noun_training plan_2321417" transform="translate(0.5 0.5)">
    <path id="Path_3175" data-name="Path 3175" d="M383.064,135.04V132H375.2a1.042,1.042,0,0,1-.627.21h-7.129a1.043,1.043,0,0,1-.627-.21H360v3.04Z" transform="translate(-343.226 -127.911)" fill="none" stroke="#382933" stroke-width="1"/>
    <path id="Path_3176" data-name="Path 3176" d="M258.789,137.137H233.629a1.048,1.048,0,0,1-1.048-1.048V132H220v73.7h42.668v-8.062a1.048,1.048,0,0,1,1.058-1.048l8.691.084V132h-12.58v4.089A1.048,1.048,0,0,1,258.789,137.137Z" transform="translate(-217.903 -127.911)" fill="none" stroke="#382933" stroke-width="1"/>
    <path id="Path_3177" data-name="Path 3177" d="M367.918,255.1h-31.87a1.048,1.048,0,1,1,0-2.1h31.87a1.048,1.048,0,0,1,0,2.1Z" transform="translate(-320.847 -236.226)" fill="#382933" stroke="#382933" stroke-width="1"/>
    <path id="Path_3178" data-name="Path 3178" d="M277.564,255.1h-2.516a1.048,1.048,0,0,1,0-2.1h2.516a1.048,1.048,0,0,1,0,2.1Z" transform="translate(-266.242 -236.226)" fill="#382933" stroke="#382933" stroke-width="1"/>
    <path id="Path_3179" data-name="Path 3179" d="M367.918,317.1h-31.87a1.048,1.048,0,1,1,0-2.1h31.87a1.048,1.048,0,0,1,0,2.1Z" transform="translate(-320.847 -291.727)" fill="#382933" stroke="#382933" stroke-width="1"/>
    <path id="Path_3180" data-name="Path 3180" d="M277.564,317.1h-2.516a1.048,1.048,0,0,1,0-2.1h2.516a1.048,1.048,0,0,1,0,2.1Z" transform="translate(-266.242 -291.727)" fill="#382933" stroke="#382933" stroke-width="1"/>
    <path id="Path_3181" data-name="Path 3181" d="M367.918,383.1h-31.87a1.048,1.048,0,1,1,0-2.1h31.87a1.048,1.048,0,0,1,0,2.1Z" transform="translate(-320.847 -350.807)" fill="#382933" stroke="#382933" stroke-width="1"/>
    <path id="Path_3182" data-name="Path 3182" d="M277.564,383.1h-2.516a1.048,1.048,0,0,1,0-2.1h2.516a1.048,1.048,0,0,1,0,2.1Z" transform="translate(-266.242 -350.807)" fill="#382933" stroke="#382933" stroke-width="1"/>
    <path id="Path_3183" data-name="Path 3183" d="M367.918,450.1h-31.87a1.048,1.048,0,1,1,0-2.1h31.87a1.048,1.048,0,0,1,0,2.1Z" transform="translate(-320.847 -410.783)" fill="#382933" stroke="#382933" stroke-width="1"/>
    <path id="Path_3184" data-name="Path 3184" d="M277.564,450.1h-2.516a1.048,1.048,0,0,1,0-2.1h2.516a1.048,1.048,0,0,1,0,2.1Z" transform="translate(-266.242 -410.783)" fill="#382933" stroke="#382933" stroke-width="1"/>
    <path id="Path_3185" data-name="Path 3185" d="M367.918,515.1h-31.87a1.048,1.048,0,1,1,0-2.1h31.87a1.048,1.048,0,0,1,0,2.1Z" transform="translate(-320.847 -468.969)" fill="#382933" stroke="#382933" stroke-width="1"/>
    <path id="Path_3186" data-name="Path 3186" d="M277.564,515.1h-2.516a1.048,1.048,0,0,1,0-2.1h2.516a1.048,1.048,0,0,1,0,2.1Z" transform="translate(-266.242 -468.969)" fill="#382933" stroke="#382933" stroke-width="1"/>
    <path id="Path_3187" data-name="Path 3187" d="M383.064,114.992V113H375.62v1.153a1.051,1.051,0,0,1-1.048,1.048h-7.129a1.051,1.051,0,0,1-1.048-1.048V113H360v5.032h23.064Z" transform="translate(-343.226 -110.903)" fill="none" stroke="#382933" stroke-width="1"/>
    <path id="Path_3188" data-name="Path 3188" d="M259.838,132v4.089a1.048,1.048,0,0,1-1.048,1.048H233.629a1.048,1.048,0,0,1-1.048-1.048V132H220v73.7h40.23a16.14,16.14,0,0,1,12.188-24.583V132Z" transform="translate(-217.903 -127.911)" fill="none" stroke="#382933" stroke-width="1"/>
    <path id="Path_3189" data-name="Path 3189" d="M266.136,149.683l.37-.693a1.831,1.831,0,0,0,.289.024,1.364,1.364,0,0,0,1.239-.693l.42-.787a1.369,1.369,0,0,0-.072-1.36,1.971,1.971,0,0,0-.754-.7l-2.782-1.485a1.951,1.951,0,0,0-.913-.236,1.378,1.378,0,0,0-1.253.7l-.42.787a1.391,1.391,0,0,0,.183,1.514l-.307.575a16.034,16.034,0,0,0-3.429-.973v-1.074a1.386,1.386,0,0,0,.943-1.292V142.92a1.6,1.6,0,0,0-1.755-1.486h-1.286V96.04a1.048,1.048,0,0,0-1.048-1.048H241.934v-.944A1.048,1.048,0,0,0,240.886,93H215.725a1.048,1.048,0,0,0-1.048,1.048v.944H201.048A1.048,1.048,0,0,0,200,96.04v75.8a1.048,1.048,0,0,0,1.048,1.048h42.83a16.141,16.141,0,1,0,22.258-23.2Zm-1.968-1.71.393.21-.1.183-.393-.21Zm-8.71-2.556h1.153v.725c-.188-.007-.376-.011-.566-.011s-.392,0-.587.012ZM216.774,97.089V95.1h6.395V96.25a1.051,1.051,0,0,0,1.048,1.048h7.129a1.051,1.051,0,0,0,1.048-1.048V95.1h7.443v5.032H216.774Zm-14.677,73.7v-73.7h12.58v4.089a1.048,1.048,0,0,0,1.048,1.048h25.161a1.048,1.048,0,0,0,1.048-1.048V97.089h12.58v44.345h-.327a1.61,1.61,0,0,0-1.77,1.486v1.067a1.386,1.386,0,0,0,.944,1.289v1.08a16.023,16.023,0,0,0-3.335.941l-.573-1.005a1.634,1.634,0,0,0-1.4-.846,1.461,1.461,0,0,0-.35.043,1.219,1.219,0,0,0-1.01-.546,1.2,1.2,0,0,0-.593.157l-.677.386a1.2,1.2,0,0,0-.565.73,1.229,1.229,0,0,0,.093.879,1.616,1.616,0,0,0-.139,1.842l.656,1.151a16.12,16.12,0,0,0-3.141,20.7H202.1Zm45.993-22.653-1,.569-.222-.39,1-.569Zm-1.538-2.053-.519.3a.9.9,0,0,1,.144-.352A.869.869,0,0,1,246.552,146.082Zm9.493,30.249a14.051,14.051,0,0,1-.749-28.083h1.5a14.051,14.051,0,0,1-.75,28.083Z" transform="translate(-200 -93)" fill="#382933" stroke="#382933" stroke-width="1"/>
    <path id="Path_3190" data-name="Path 3190" d="M622.823,655.165a13.089,13.089,0,1,1,13.089-13.089A13.1,13.1,0,0,1,622.823,655.165Zm0-24.082a10.992,10.992,0,1,0,10.992,10.992A11,11,0,0,0,622.823,631.084Z" transform="translate(-566.779 -572.796)" fill="#382933" stroke="#382933" stroke-width="1"/>
    <path id="Path_3191" data-name="Path 3191" d="M689.779,667.9a1.048,1.048,0,1,0-1.876.937l3.8,7.613-3.969,3.969a1.048,1.048,0,1,0,1.483,1.483l4.339-4.339a1.588,1.588,0,0,0,.318-1.459Z" transform="translate(-636.333 -607.111)" fill="#382933" stroke="#382933" stroke-width="1"/>
    <path id="Path_3192" data-name="Path 3192" d="M825.58,754h-.108a.47.47,0,0,0-.47.47v.108a.47.47,0,0,0,.47.47h.108a.47.47,0,0,0,.47-.47v-.108A.47.47,0,0,0,825.58,754Z" transform="translate(-759.479 -684.705)" fill="#382933" stroke="#382933" stroke-width="1"/>
    <path id="Path_3193" data-name="Path 3193" d="M633.58,754h-.108a.47.47,0,0,0-.47.47v.108a.47.47,0,0,0,.47.47h.108a.47.47,0,0,0,.47-.47v-.108A.47.47,0,0,0,633.58,754Z" transform="translate(-587.608 -684.705)" fill="#382933" stroke="#382933" stroke-width="1"/>
    <path id="Path_3194" data-name="Path 3194" d="M730.58,844h-.108a.47.47,0,0,0-.47.47v.108a.47.47,0,0,0,.47.47h.108a.47.47,0,0,0,.47-.47v-.108A.47.47,0,0,0,730.58,844Z" transform="translate(-674.439 -765.269)" fill="#382933" stroke="#382933" stroke-width="1"/>
    <path id="Path_3195" data-name="Path 3195" d="M730.471,653.05h.108a.47.47,0,0,0,.47-.47v-.107a.47.47,0,0,0-.47-.47h-.108a.47.47,0,0,0-.47.47v.107A.47.47,0,0,0,730.471,653.05Z" transform="translate(-674.438 -593.399)" fill="#382933" stroke="#382933" stroke-width="1"/>
  </g>
</svg>
