<?xml version="1.0" encoding="utf-8"?>
<!-- Generator: Adobe Illustrator 24.1.0, SVG Export Plug-In . SVG Version: 6.00 Build 0)  -->
<svg version="1.1" id="Layer_1" xmlns="http://www.w3.org/2000/svg" xmlns:xlink="http://www.w3.org/1999/xlink" x="0px" y="0px"
	 viewBox="0 0 750 750" style="enable-background:new 0 0 750 750;" xml:space="preserve">
<style type="text/css">
	.st0{display:none;fill:#DBDBDB;}
	.st1{fill:#A8A8A8;}
	.st2{fill:url(#SVGID_1_);}
	.st3{fill:#F4F4F4;}
</style>
<g>
	<g>
		<rect x="0.4" class="st0" width="749.6" height="749"/>
		<ellipse class="st1" cx="383.2" cy="343.9" rx="200.8" ry="190.5"/>
		<linearGradient id="SVGID_1_" gradientUnits="userSpaceOnUse" x1="370.9575" y1="763.8485" x2="370.9575" y2="449.6402">
			<stop  offset="4.975120e-03" style="stop-color:#F2F2F2"/>
			<stop  offset="0.2723" style="stop-color:#EEEEEE"/>
			<stop  offset="0.5331" style="stop-color:#E3E3E2"/>
			<stop  offset="0.7903" style="stop-color:#CFCFCF"/>
			<stop  offset="1" style="stop-color:#BABAB9"/>
		</linearGradient>
		<path class="st2" d="M462.6,485.4c0,0-34.6,122.5,11.1,163.8c9.5,8.6,42.6,19.8,42.6,19.8l2.5,9.4c0,0-0.3-14,8.5-4.8
			c8.8,9.1,35.2,13.7,35.2,13.7l49.6,27.4c0,0,30.8,17.1,30.8,24c0,6.9,0,6.9,0,6.9H98.9l50.7-44.6l38.6-9.1c0,0,13.2-16,19.8-13.7
			s6.6,2.3,6.6,2.3l11.9-11.2c0,0,50.6-23.2,62.4-42.1c22.3-35.5,11.1-125.8,11.1-125.8L462.6,485.4z"/>
		<path class="st3" d="M264.5,462.1c0,0-17.3,29.6,56.2,97.8c6.6,6.1,21.4,24.7,28.4,27.4c25.8,9.9,39.8,3.2,54.2-1
			c11.5-3.4,27.1-21.5,27.1-21.5s61.1-46.9,62.2-70.9c1.1-23.9,8.6-31.7,8.6-31.7s1.7-3.2,7.8-0.2c10.7,5.1,17-15.5,19-38.2
			c1.5-17.4-8.1-39.6-19.1-38.6c-11,1-6.6,2.8-6.6,2.8c-0.1-1.2,0.9-21.8-3.2-37.9c-6.3-24.4,3.5-83.9-22.9-99.5
			c-26.4-15.6-8.5-22.3-46.7-33.5c-16.3-4.8-77.7,8.2-98.6,0.9c-20.9-7.3-55.2,69.4-62.2,83.8c-8.7,17.6-5.4,89.6-4.3,102.1
			c1.1,12.5,1.1,12.5,1.1,12.5s-7.7-33.3-14.3-35.4c-6.6-2.1-18.7-2.1-16.5,22.9c2.2,25-4.2,8.7,14.3,52
			C260,481.3,264.5,462.1,264.5,462.1z"/>
	</g>
	<g>
		<path class="st1" d="M285.2,625.8c-11.2-11.1-21.3-22.1-30.6-32.9C272,613.9,285.2,625.8,285.2,625.8z"/>
		<path class="st1" d="M279.6,601.9c4.6,3.1,7.8,4.4,7.8,4.4C284.8,605,282.2,603.5,279.6,601.9z"/>
		<path class="st1" d="M610.4,343.8l-0.2,0.3c-0.4-13.7-2.7-28.4-7.1-44.1C543.5,91,464,98.5,452.4,97
			c-11.6-1.5-41.5,18.7-41.5,18.7S311,44,213.3,199.6c-31.8,50.6-48.7,93.3-55.8,129.4c-2.7,6.7-5.6,13.9-8.6,21.9
			c-7.1,18.8-3.2,28.1,4.9,32.3c0.7,9.5,2.2,18.4,4.2,26.7c0,4.7,0.2,9.6,0.7,14.6c-4.9,10.6-9,24.2-0.6,32.2
			c-1.9,20.1,6.4,32.9,20.5,38.6c12.3,25,31.1,51.1,59.4,76.8c5.2,6.8,10.8,13.7,16.8,20.7c-4.6-5.6-9.5-11.8-14.5-18.6
			c14.3,12.8,31,25.6,50.3,38c-1.2-0.8-29.3-19.3-58.8-51.4c-4.9-7.3-11.1-21-12.9-44.6c8.1,24,26,63.9,60.8,85.6
			c-7.9-5.4-20.1-16.4-27.4-36.1c3.9,1,8.3,1.3,13.5,0.8c1.8-0.2,17.2-6.7,36.7-22.5c0,0-32.6,22-52.7,13.9
			c-3.4-12.6-4.9-28.2-2.8-47.4c1.2-0.6,2.3-1.3,3.4-2c38.6,5,63.1-34.8,109.1-180.9c47.2-149.9,74.7-105.1,74.7-105.1
			c16.7,33.1,35.6,65.3,63.2,88.5c0,0-22.9-23.3-39.6-49.8c21.7,26.6,31.1,10.3,67.7,90.3c47.4,103.7-40,155.1-40,155.1
			s16-5.7,36.6-18.2c-2.4,10-6.9,22.1-12.1,30.9c-6.8-3.9-12.1-8.9-13.7-10.7c1.3,1.9,5.7,7.8,12.5,12.6c-0.6,0.9-1.1,1.7-1.7,2.5
			c-9.7,13.5-21-3.7-21-3.7c3,8.2,10.5,10.5,10.5,10.5c4.5,3.1,9.7-0.4,14.9-7.4c4.6,2.8,9.8,4.8,15.2,5.2c-0.6,1.6-1.2,3.2-1.9,4.6
			c0.8-1.3,1.7-2.9,2.5-4.5c23,1,29.2-42.1,30.9-64.6c1.6-2.3,3.2-4.6,4.7-6.8c11.7-11.5,22.6-25.2,31.1-41.3
			c-5.6,16.7-11.5,29.7-11.5,29.7c8.4-16.8,11.9-27.2,19.1-46.8c-5.9,19.5-13.5,36.1-13.5,36.1C616.6,377.9,610.4,343.8,610.4,343.8
			z M153.4,378.4c-8.4-2.9-4.6-21.8,2.8-42.7C153.6,351.2,152.8,365.4,153.4,378.4z M208.4,506.4c-3.8-1.2-7.2-2.7-10.4-4.4
			c-0.5-1.2-1.1-2.5-1.6-3.7c3.2-0.1,6.5-0.4,9.9-1.1C206.9,500.1,207.6,503.2,208.4,506.4z M159,448.8c-1.3-3.9-0.7-9.1,0.7-14.4
			C161.2,445.8,161.1,437.3,159,448.8z M163.2,460.1c4.2,1.8-0.6-2.5,9,21.4c0.2,1.3,0.6,2.5,1,3.7
			C165.1,480.8,162.9,470.7,163.2,460.1z M173.3,465.4c-0.3-1.1-0.7-2.1-1-3.2c0.7,0,1.4,0.1,2.1,0.1
			C174,463.3,173.6,464.3,173.3,465.4z M170.5,455.8c-1.6-5.8-2.9-11.7-3.9-17.7c1-4-1.1-2.2,9.2,14.8c0.3,1.2,0.7,2.5,1.1,3.7
			C174.3,456.5,172.1,456.3,170.5,455.8z M183.3,489.4c-0.3-0.5-0.5-0.9-0.8-1.4c-0.3-0.2-0.5-0.5-0.7-0.7
			c-1.7-3.8-3.3-7.7-4.8-11.6c0-3.5,0.9-7.2,2.4-10.8c1,3.1,2.1,6.3,3.3,9.5c0.4,2.1,1.1,4,2.1,5.6c1.4,3.6,2.8,7.2,4.4,10.8
			C187,490.4,185.1,489.9,183.3,489.4z M187.5,469.9c3.3,4.2,6.5,8,9.7,11.5C190,480.8,187.5,476.1,187.5,469.9z M203.9,488.5
			c1.1,1.1,0.9,0.7,1.1,2.1c-4.1,0.6-8,0.8-11.6,0.6c-0.7-1.8-1.4-3.5-2-5.3C194.7,487.5,198.9,488.4,203.9,488.5z M192.9,498.9
			c-1.1-0.8-0.9-0.6-0.3-0.5C192.7,498.5,192.8,498.7,192.9,498.9z M191.6,506.6c2,1.2,4.2,2.3,6.5,3.2c6.4,12.6,14,25.6,22.9,39
			C210.7,536.4,200.5,522.2,191.6,506.6z M229.7,558.8c-6.5-7.1-21.3-34.5-27.4-47.4c2.5,0.9,5.1,1.6,7.9,2.3
			C214.4,529.1,220.7,546.2,229.7,558.8z M539.8,476.7c1.8-1.3,3.7-2.7,5.5-4.2c0.4,2.1,1.1,0.4-6.3,12.2
			C539.3,482.2,539.6,479.5,539.8,476.7z M513,521.2c6.8-10,13.6-25.4,18.7-38.7c1.8-1.2,3.6-2.4,5.4-3.7c-0.4,3.2-0.9,7.2-1.6,11.7
			c-3.2,5.2-3.6,5.5-0.1,0.6c-1.6,10.5-4,23.3-7.4,33.6C523,525.1,517.8,523.5,513,521.2z M544.6,508.2
			c-3.5,10.6-9.2,15.2-15.4,16.2c3.8-8.6,7.5-21,9.7-38.3c2.4-3.5,4.8-6.9,7-10.2C547.4,486.3,547.9,498.3,544.6,508.2z
			 M558.3,462.4c0.1-1.3-0.2-0.8,1.4-2.3C559.3,460.9,558.8,461.7,558.3,462.4z"/>
		<path class="st1" d="M496.3,508.8c-0.3-0.4-0.4-0.6-0.4-0.6C495.9,508.3,496.1,508.5,496.3,508.8z"/>
		<path class="st1" d="M516.9,542.7c3-1.2,5.6-4.7,7.9-9.7C520.4,540.2,516.9,542.7,516.9,542.7z"/>
	</g>
</g>
</svg>
