<?xml version="1.0" encoding="utf-8"?>
<!-- Generator: Adobe Illustrator 24.1.0, SVG Export Plug-In . SVG Version: 6.00 Build 0)  -->
<svg version="1.1" id="Layer_1" xmlns="http://www.w3.org/2000/svg" xmlns:xlink="http://www.w3.org/1999/xlink" x="0px" y="0px"
	 viewBox="0 0 750 750" style="enable-background:new 0 0 750 750;" xml:space="preserve">
<style type="text/css">
	.st0{display:none;fill:#FFFFFF;}
	.st1{fill:url(#SVGID_1_);}
	.st2{fill:url(#SVGID_2_);}
	.st3{fill:#A8A8A8;}
	.st4{fill:#F4F4F4;}
	.st5{fill:#FFFFFF;}
</style>
<g>
	<rect x="-0.1" class="st0" width="750" height="749.7"/>
	
		<linearGradient id="SVGID_1_" gradientUnits="userSpaceOnUse" x1="247.8" y1="122.0396" x2="508.6" y2="122.0396" gradientTransform="matrix(1 0 0 -1 0 750)">
		<stop  offset="0" style="stop-color:#A1A1A1"/>
		<stop  offset="5.779973e-02" style="stop-color:#B2B2B2"/>
		<stop  offset="0.1872" style="stop-color:#D4D4D4"/>
		<stop  offset="0.3108" style="stop-color:#ECECEC"/>
		<stop  offset="0.4253" style="stop-color:#FAFAFA"/>
		<stop  offset="0.5215" style="stop-color:#FFFFFF"/>
		<stop  offset="0.6449" style="stop-color:#FCFCFB"/>
		<stop  offset="0.7549" style="stop-color:#F1F1F1"/>
		<stop  offset="0.8598" style="stop-color:#DFDFDE"/>
		<stop  offset="0.9609" style="stop-color:#C6C6C5"/>
		<stop  offset="1" style="stop-color:#BABAB9"/>
	</linearGradient>
	<path class="st1" d="M508.6,677c-86.4-30.6-173.7-29.6-260.8,0v-81.8c87.7-22.4,174.6-21,260.8,0V677z"/>
	
		<linearGradient id="SVGID_2_" gradientUnits="userSpaceOnUse" x1="381.7667" y1="-15.6943" x2="381.7667" y2="255.1867" gradientTransform="matrix(1 0 0 -1 0 750)">
		<stop  offset="0" style="stop-color:#FFFFFF"/>
		<stop  offset="0.243" style="stop-color:#FBFBFB"/>
		<stop  offset="0.4799" style="stop-color:#F0F0EF"/>
		<stop  offset="0.7145" style="stop-color:#DCDCDC"/>
		<stop  offset="0.9463" style="stop-color:#C1C1C0"/>
		<stop  offset="1" style="stop-color:#BABAB9"/>
	</linearGradient>
	<path class="st2" d="M471.9,525.6c-6.5,0,5.2,82.8,11.3,102.7C497,673.6,665.3,712,666.5,742.1c0.3,7.8,0,7.8,0,7.8H96.9l53-51
		l40.4-10.5l21.5-10.1c4.1-2,8-4.3,11.7-7.1l44.1-33.5c0,0,13.8-17.3,12.7-43.5s-1.2-68.7-1.2-68.7L471.9,525.6L471.9,525.6z"/>
	<path class="st3" d="M242.8,397.9c0,0-30.2-56.3-35.5-65s4-38.7,0-45c-4-6.2-5.3-97.5,26.5-124.9c31.8-27.5,50.4-35,50.4-35
		c7.9-6.8,60.3-26,82.4-22.5c66.3,10.4,55.3,7,67.5,6.2c28.2,4.5,49.7,12.1,46.3,30.6c10.6-5.5,19-5.5,28,0.7
		c-2.5,5.2-2.8,8.6,0,11.2c0,0,34.5,1.2,34.5,87.5c0,83-6.4,112.7-15.9,117.5c-9.5,4.8-27,21.6-27,21.6s4.4-150.3-38.1-149.1
		s-73.6,22.6-176.5,0C263,226.8,230.8,368,242.8,397.9z"/>
	<path class="st4" d="M239.3,450.8c0,0,18.3,89.6,64.2,117.5c71.8,43.4,121,6.6,121,6.6s57.3-51.3,66.7-81.6
		c8.4-27,11.3-42.5,11.3-42.5s7.6,0,12.6-6.2c5-6.2,6.3-46.2,10.1-57.5c3.8-11.2,6.3-30-6.3-28.7c-12.6,1.2-18.9,22.5-18.9,22.5
		s11.4-37.8,3.9-60.3c-7.6-22.5-2.6-69.7-32.9-88.4c-30.2-18.7-68.7-12.5-87.3-6.2c-18.5,6.2-57.6,2.5-81.5-6.2s-50.7,31-54.5,49.8
		s-9.8,96.4-8.5,111.4s1.3,15,1.3,15s-8.8-40-16.4-42.5c-7.6-2.5-21.4-2.5-18.9,27.5s5.6,6.8,16.4,62.5
		C228,475.8,239.3,450.8,239.3,450.8z"/>
	<path class="st5" d="M247.7,595.9c0,0-11,64.6-18,66.4c-7,1.8,78,43.7,109.3,47.7c0,0,18.8-32.5,39.8-42.4
		C378.8,667.7,252,624.6,247.7,595.9z"/>
	<path class="st5" d="M508.9,595.3c0,0,11.5,64.5,18.5,66.2s-76.7,44.5-107.6,48.9c0,0-18.9-32.3-39.8-41.9
		C380,668.5,504.9,624.1,508.9,595.3z"/>
</g>
</svg>
