<?xml version="1.0" encoding="utf-8"?>
<!-- Generator: Adobe Illustrator 24.1.0, SVG Export Plug-In . SVG Version: 6.00 Build 0)  -->
<svg version="1.1" id="Layer_1" xmlns="http://www.w3.org/2000/svg" xmlns:xlink="http://www.w3.org/1999/xlink" x="0px" y="0px"
	 viewBox="0 0 1280 720" style="enable-background:new 0 0 1280 720;" xml:space="preserve">
<style type="text/css">
	.st0{fill:#F2F2F2;}
	.st1{opacity:0.36;fill:#4C65BA;enable-background:new    ;}
	.st2{fill:#FFFFFF;}
	.st3{fill:#E5E5E5;}
	.st4{opacity:0.47;fill:#FFFFFF;enable-background:new    ;}
</style>
<rect class="st0" width="1280" height="720"/>
<g>
	<g>
		<path class="st1" d="M759.1,471.1L472.4,515c-7,1.1-13.6-3.7-14.6-10.8l-43.9-286.6c-1.1-7,3.7-13.6,10.8-14.6L711.3,159
			c7-1.1,13.6,3.7,14.6,10.8l43.9,286.6C770.9,463.4,766.1,470,759.1,471.1z"/>
		<path class="st2" d="M747.2,456.7l-299.5,45.9c-3.5,0.5-6.7-1.9-7.2-5.3l-45.9-299.5c-0.5-3.5,1.9-6.7,5.3-7.2l299.5-45.9
			c3.5-0.5,6.7,1.9,7.2,5.3l45.9,299.5C753.1,452.9,750.7,456.1,747.2,456.7z"/>
		<g>
			
				<rect x="442.5" y="192.7" transform="matrix(0.9885 -0.1515 0.1515 0.9885 -42.4101 90.6079)" class="st3" width="261.9" height="261.9"/>
			<path class="st4" d="M461.4,474.6l-9-58.6l37.7-60.1c5.2-8.3,15.8-11.3,24.5-6.8l47.1,23.8c2.8,1.4,6.1,0.7,8.2-1.6l53-61.9
				c11.2-13.1,30.7-16,45.2-6.6l42.2,27.3l0.2,1.4l15.7,102.6l-3,0.5L461.4,474.6z M458.7,417.3l7.7,50.4L719.3,429l-14.6-95.3
				l-40-25.8c-12-7.8-28-5.4-37.3,5.4l-53,61.9c-3.8,4.5-10.2,5.8-15.5,3.1l-47.1-23.8c-6-3-13.1-1-16.7,4.6L458.7,417.3z"/>
			<path class="st4" d="M575.5,297.2c-13.3-2.2-24.4-12.8-26.5-26.9c-2.7-17.6,9.4-34.1,27-36.7s34,9.4,36.7,27s-9.4,34-27,36.7
				C582.2,297.8,578.8,297.8,575.5,297.2z M585.2,239.6c-2.7-0.4-5.5-0.5-8.3-0.1c-14.3,2.2-24.1,15.6-21.9,29.8
				c2.2,14.3,15.6,24.1,29.8,21.9c14.3-2.2,24.1-15.6,21.9-29.8C605,250,596,241.4,585.2,239.6z"/>
		</g>
	</g>
	<g>
		<path class="st1" d="M817.4,549.8l-230.9-54.6c-5.7-1.3-9.1-7-7.8-12.6l54.6-230.9c1.3-5.6,7-9.1,12.6-7.8l230.9,54.6
			c5.7,1.3,9.1,7,7.8,12.6L830.1,542C828.7,547.7,823.1,551.2,817.4,549.8z"/>
		<path class="st2" d="M811.7,535l-238.9-56.5c-3.4-0.8-5.5-4.2-4.7-7.6L624.5,232c0.8-3.4,4.2-5.5,7.7-4.7l238.9,56.5
			c3.4,0.8,5.5,4.2,4.7,7.6l-56.5,238.9C818.6,533.7,815.2,535.8,811.7,535z"/>
		<g>
			
				<rect x="614.7" y="274" transform="matrix(0.23 -0.9732 0.9732 0.23 184.8929 995.9417)" class="st3" width="214.3" height="214.3"/>
			<path class="st4" d="M590.6,461.3l11.2-47.2l47.1-34c6.5-4.7,15.4-3.7,20.7,2.4l28.4,32.5c1.7,1.9,4.4,2.4,6.7,1.3l59.1-30.7
				c12.6-6.5,28.2-2.7,36.3,8.9l23.7,33.6l-0.3,1.1l-19.5,82.7l-2.4-0.6L590.6,461.3z M606.1,417l-9.6,40.6l203.7,48.1l18.1-76.8
				l-22.4-31.8c-6.7-9.5-19.6-12.7-30-7.3l-59.1,30.7c-4.3,2.2-9.5,1.2-12.7-2.4l-28.4-32.5c-3.6-4.1-9.7-4.8-14.1-1.6L606.1,417z"
				/>
			<path class="st4" d="M731.5,361.7c-9.4-5.8-14.5-17.2-11.9-28.5c3.3-14.1,17.6-22.9,31.7-19.6c14.1,3.4,22.9,17.6,19.6,31.7
				s-17.6,22.9-31.7,19.6C736.4,364.2,733.8,363.1,731.5,361.7z M756.5,321c-1.9-1.2-4-2-6.3-2.6c-11.5-2.7-23,4.4-25.8,15.9
				c-2.7,11.5,4.4,23,15.9,25.8c11.5,2.7,23-4.4,25.8-15.9C768.3,335,764.1,325.7,756.5,321z"/>
		</g>
	</g>
</g>
</svg>
