<svg xmlns="http://www.w3.org/2000/svg" width="74.154" height="74.152" viewBox="0 0 74.154 74.152">
  <path id="heartsparkle" d="M62.594,47.795q-.942-1.231-1.485-2.1a8.964,8.964,0,0,1-.868-1.81q-.326-.94-.507-1.522a3.059,3.059,0,0,1,.072-1.594,13,13,0,0,1,.47-1.557,12.2,12.2,0,0,1,1.087-1.847q.87-1.3,1.485-2.173t2.064-2.753q-2.173,1.594-3.078,2.318a17.112,17.112,0,0,1-2.427,1.557q-1.522.833-1.992,1.05a4.841,4.841,0,0,1-1.773.217,4.842,4.842,0,0,1-1.773-.217q-.47-.216-1.992-1.05a17.114,17.114,0,0,1-2.427-1.557q-.905-.724-3.078-2.318,1.594,2.173,2.318,3.078a17.113,17.113,0,0,1,1.557,2.427q.833,1.522,1.05,1.992a4.841,4.841,0,0,1,.216,1.773,4.842,4.842,0,0,1-.216,1.773q-.216.47-1.05,1.992A17.114,17.114,0,0,1,48.689,47.9q-.724.905-2.318,3.078,1.883-1.447,2.753-2.064T51.3,47.43a11.234,11.234,0,0,1,1.883-1.087,15.623,15.623,0,0,1,1.557-.47,2.948,2.948,0,0,1,1.557-.072q.579.179,1.557.507a7.837,7.837,0,0,1,1.847.905q.87.577,2.1,1.447-1.955,2.245-3.476,3.765L37.031,74.152,15.812,52.426Q7.193,43.591,3.61,35.7A41.037,41.037,0,0,1,.024,18.539,17.861,17.861,0,0,1,5.455,5.431,17.861,17.861,0,0,1,18.563,0,17.861,17.861,0,0,1,31.67,5.431,17.861,17.861,0,0,1,37.1,18.539,17.861,17.861,0,0,1,42.532,5.431,17.861,17.861,0,0,1,55.64,0,17.861,17.861,0,0,1,68.747,5.431a17.861,17.861,0,0,1,5.431,13.108,41.3,41.3,0,0,1-2.68,14.99A50.386,50.386,0,0,1,62.59,47.795ZM27.833,18.539Q25.66,20.2,24.754,20.891a20.139,20.139,0,0,1-2.427,1.522q-1.522.835-1.992,1.05a4.9,4.9,0,0,1-1.773.216,4.781,4.781,0,0,1-1.773-.216q-.47-.219-1.992-1.05a19.47,19.47,0,0,1-2.427-1.522L9.292,18.539q1.666,2.173,2.353,3.078a20.139,20.139,0,0,1,1.522,2.427q.835,1.522,1.05,1.992a4.9,4.9,0,0,1,.216,1.773,4.781,4.781,0,0,1-.216,1.773q-.219.47-1.05,1.992A19.469,19.469,0,0,1,11.645,34L9.292,37.079q2.173-1.666,3.078-2.353A20.139,20.139,0,0,1,14.8,33.2q1.522-.835,1.992-1.05a4.9,4.9,0,0,1,1.773-.216,4.781,4.781,0,0,1,1.773.216q.47.219,1.992,1.05a19.47,19.47,0,0,1,2.427,1.522l3.078,2.353Q26.239,34.906,25.515,34a17.112,17.112,0,0,1-1.557-2.427q-.833-1.522-1.05-1.992a4.842,4.842,0,0,1-.216-1.773,4.842,4.842,0,0,1,.216-1.773q.216-.47,1.05-1.992a17.113,17.113,0,0,1,1.557-2.427q.724-.905,2.318-3.078Z" transform="translate(-0.024)" fill="#ff7171"/>
</svg>
