<?xml version="1.0" encoding="utf-8"?>
<!-- Generator: Adobe Illustrator 24.1.0, SVG Export Plug-In . SVG Version: 6.00 Build 0)  -->
<svg version="1.1" id="Layer_1" xmlns="http://www.w3.org/2000/svg" xmlns:xlink="http://www.w3.org/1999/xlink" x="0px" y="0px"
	 viewBox="0 0 100 60" style="enable-background:new 0 0 100 60;" xml:space="preserve">
<style type="text/css">
	.st0{opacity:0.1;}
	.st1{fill:none;stroke:rgb(244,208,31);stroke-linecap:round;stroke-linejoin:round;}
	.st2{fill:none;stroke:rgb(244,208,31);stroke-linecap:round;stroke-linejoin:round;}
</style>
<g id="analytics-outline" transform="translate(-4.939 3.796) rotate(-7)" class="st0">
	<path id="Path_3218" class="st1" d="M64.5,43.1l21.4-12.4"/>
	<path id="Path_3219" class="st1" d="M46.3,25.2l9,15.5"/>
	<path id="Path_3220" class="st1" d="M11.9,37.4l25.2-14.6"/>
	<path id="Path_3221" class="st1" d="M96.3,28.6c-0.6,2.5-3.2,4.1-5.7,3.6C88,31.5,86.4,29,87,26.4s3.2-4.1,5.7-3.6l0.1,0
		C95.3,23.5,96.8,26,96.3,28.6z"/>
	<path id="Path_3222" class="st1" d="M63.3,47.8c-0.6,2.5-3.2,4.1-5.7,3.6c-2.5-0.6-4.1-3.2-3.6-5.7s3.2-4.1,5.7-3.6l0.1,0
		C62.3,42.6,63.9,45.2,63.3,47.8z"/>
	<path id="Path_3223" class="st1" d="M47.5,20.6c-0.6,2.5-3.2,4.1-5.7,3.6c-2.5-0.6-4.1-3.2-3.6-5.7s3.2-4.1,5.7-3.6l0.1,0
		C46.5,15.5,48,18.1,47.5,20.6z"/>
	<path id="Path_3224" class="st1" d="M10.7,42c-0.6,2.5-3.2,4.1-5.7,3.6c-2.5-0.6-4.1-3.2-3.6-5.7s3.2-4.1,5.7-3.6l0.1,0
		C9.7,37,11.2,39.5,10.7,42z"/>
</g>
<g id="analytics-outline_1_" transform="translate(-4.939 3.796) rotate(-7)">
	<path id="Path_3218_1_" class="st2" d="M68.7,37.3l17.5-17.5"/>
	<path id="Path_3219_1_" class="st2" d="M46.5,24.6l12.7,12.7"/>
	<path id="Path_3220_1_" class="st2" d="M16.4,45.2L37,24.6"/>
	<path id="Path_3221_1_" class="st2" d="M95.7,15.1c0.1,2.6-2,4.8-4.6,4.9c-2.6,0.1-4.8-2-4.9-4.6s2-4.8,4.6-4.9h0.1
		C93.5,10.5,95.6,12.5,95.7,15.1z"/>
	<path id="Path_3222_1_" class="st2" d="M68.7,42.1c0.1,2.6-2,4.8-4.6,4.9c-2.6,0.1-4.8-2-4.9-4.6c-0.1-2.6,2-4.8,4.6-4.9h0.1
		C66.5,37.4,68.7,39.5,68.7,42.1z"/>
	<path id="Path_3223_1_" class="st2" d="M46.5,19.9c0.1,2.6-2,4.8-4.6,4.9s-4.8-2-4.9-4.6c-0.1-2.6,2-4.8,4.6-4.9h0.1
		C44.3,15.2,46.4,17.3,46.5,19.9z"/>
	<path id="Path_3224_1_" class="st2" d="M16.4,50c0.1,2.6-2,4.8-4.6,4.9c-2.6,0.1-4.8-2-4.9-4.6c-0.1-2.6,2-4.8,4.6-4.9h0.1
		C14.2,45.4,16.3,47.4,16.4,50z"/>
</g>
</svg>
