<?xml version="1.0" standalone="no"?>
<!DOCTYPE svg PUBLIC "-//W3C//DTD SVG 20010904//EN"
 "http://www.w3.org/TR/2001/REC-SVG-20010904/DTD/svg10.dtd">
<svg version="1.0" xmlns="http://www.w3.org/2000/svg"
 width="20.000000pt" height="20.000000pt" viewBox="0 0 512.000000 512.000000"
 preserveAspectRatio="xMidYMid meet">

<g transform="translate(0.000000,512.000000) scale(0.100000,-0.100000)"
fill="#F87201" stroke="#F87201">
<path d="M3445 3639 l-1319 -1200 -413 413 -413 413 -162 -163 -163 -162 585
-585 586 -586 1487 1367 1488 1367 -172 166 c-94 91 -175 167 -178 168 -3 1
-600 -538 -1326 -1198z"/>
<path d="M0 2475 l0 -2195 2195 0 2195 0 0 1541 0 1541 -44 -39 c-24 -21 -134
-121 -245 -223 l-201 -185 0 -1077 0 -1078 -1705 0 -1705 0 0 1710 0 1710
1520 0 1521 0 264 241 c146 133 265 243 265 245 0 2 -913 4 -2030 4 l-2030 0
0 -2195z"/>
</g>
</svg>
