<?xml version="1.0" encoding="utf-8"?>
<!-- Generator: Adobe Illustrator 24.1.0, SVG Export Plug-In . SVG Version: 6.00 Build 0)  -->
<svg version="1.1" id="Layer_1" xmlns="http://www.w3.org/2000/svg" xmlns:xlink="http://www.w3.org/1999/xlink" x="0px" y="0px"
	 viewBox="0 0 68.2 68.2" style="enable-background:new 0 0 68.2 68.2;" xml:space="preserve">
<style type="text/css">
	.st0{fill:#161616;}
</style>
<g id="others_skills" transform="translate(-2.25 -2.25)">
	<path id="Path_3034" class="st0" d="M50.9,70.4h-4.9V58.2c0-6.7-5.5-12.2-12.2-12.2H19.3c-6.7,0-12.2,5.5-12.2,12.2v12.2H2.2V58.2
		c0-9.4,7.6-17,17-17h14.6c9.4,0,17,7.6,17,17V70.4z"/>
	<path id="Path_3035" class="st0" d="M26.6,7.1c6.7,0,12.2,5.5,12.2,12.2s-5.5,12.2-12.2,12.2S14.4,26,14.4,19.3l0,0
		C14.4,12.6,19.9,7.1,26.6,7.1 M26.6,2.2c-9.4,0-17,7.6-17,17c0,9.4,7.6,17,17,17s17-7.6,17-17c0,0,0,0,0,0
		C43.6,9.9,36,2.3,26.6,2.2z"/>
	<rect x="47.3" y="29.4" transform="matrix(0.7423 -0.6701 0.6701 0.7423 -11.79 42.4534)" class="st0" width="4" height="14.3"/>
	
		<rect x="48.6" y="32.2" transform="matrix(-0.7638 0.6455 -0.6455 -0.7638 128.3015 21.4186)" class="st0" width="23.3" height="4"/>
</g>
</svg>
